<svg xmlns="http://www.w3.org/2000/svg" xmlns:xlink="http://www.w3.org/1999/xlink" viewBox="0 0 1200 300" width="1200" height="300" role="img" aria-label="Deus não joga dados com o universo. Mas alguém precisa limpar os dados dele. Nós somos DedSec."><defs>
  <filter id="glow" x="-30%" y="-60%" width="160%" height="220%">
    <feGaussianBlur in="SourceGraphic" stdDeviation="2.5" result="b1"/>
    <feGaussianBlur in="SourceGraphic" stdDeviation="7" result="b2"/>
    <feMerge><feMergeNode in="b2"/><feMergeNode in="b1"/><feMergeNode in="SourceGraphic"/></feMerge>
  </filter>
  <pattern id="scan" width="3" height="3" patternUnits="userSpaceOnUse">
    <rect width="3" height="1" fill="#000" fill-opacity=".35"/>
  </pattern>
  <pattern id="dots" width="16" height="16" patternUnits="userSpaceOnUse">
    <rect width="2" height="2" fill="#00F0FF" fill-opacity=".10"/>
  </pattern></defs><rect width="1200" height="300" fill="#0A0A0F"/><rect width="1200" height="300" fill="url(#dots)"/><g><rect x="573" y="26" width="9" height="9" fill="#F2F2F2"/><rect x="582" y="26" width="9" height="9" fill="#F2F2F2"/><rect x="591" y="26" width="9" height="9" fill="#F2F2F2"/><rect x="600" y="26" width="9" height="9" fill="#F2F2F2"/><rect x="609" y="26" width="9" height="9" fill="#F2F2F2"/><rect x="618" y="26" width="9" height="9" fill="#F2F2F2"/><rect x="564" y="35" width="9" height="9" fill="#F2F2F2"/><rect x="573" y="35" width="9" height="9" fill="#F2F2F2"/><rect x="582" y="35" width="9" height="9" fill="#F2F2F2"/><rect x="591" y="35" width="9" height="9" fill="#F2F2F2"/><rect x="600" y="35" width="9" height="9" fill="#F2F2F2"/><rect x="609" y="35" width="9" height="9" fill="#F2F2F2"/><rect x="618" y="35" width="9" height="9" fill="#F2F2F2"/><rect x="627" y="35" width="9" height="9" fill="#F2F2F2"/><rect x="555" y="44" width="9" height="9" fill="#F2F2F2"/><rect x="564" y="44" width="9" height="9" fill="#F2F2F2"/><rect x="573" y="44" width="9" height="9" fill="#F2F2F2"/><rect x="582" y="44" width="9" height="9" fill="#F2F2F2"/><rect x="591" y="44" width="9" height="9" fill="#F2F2F2"/><rect x="600" y="44" width="9" height="9" fill="#F2F2F2"/><rect x="609" y="44" width="9" height="9" fill="#F2F2F2"/><rect x="618" y="44" width="9" height="9" fill="#F2F2F2"/><rect x="627" y="44" width="9" height="9" fill="#F2F2F2"/><rect x="636" y="44" width="9" height="9" fill="#F2F2F2"/><rect x="555" y="53" width="9" height="9" fill="#F2F2F2"/><rect x="564" y="53" width="9" height="9" fill="#F2F2F2"/><rect x="591" y="53" width="9" height="9" fill="#F2F2F2"/><rect x="600" y="53" width="9" height="9" fill="#F2F2F2"/><rect x="627" y="53" width="9" height="9" fill="#F2F2F2"/><rect x="636" y="53" width="9" height="9" fill="#F2F2F2"/><rect x="555" y="62" width="9" height="9" fill="#F2F2F2"/><rect x="591" y="62" width="9" height="9" fill="#F2F2F2"/><rect x="600" y="62" width="9" height="9" fill="#F2F2F2"/><rect x="636" y="62" width="9" height="9" fill="#F2F2F2"/><rect x="555" y="71" width="9" height="9" fill="#F2F2F2"/><rect x="564" y="71" width="9" height="9" fill="#F2F2F2"/><rect x="573" y="71" width="9" height="9" fill="#F2F2F2"/><rect x="582" y="71" width="9" height="9" fill="#F2F2F2"/><rect x="591" y="71" width="9" height="9" fill="#F2F2F2"/><rect x="600" y="71" width="9" height="9" fill="#F2F2F2"/><rect x="609" y="71" width="9" height="9" fill="#F2F2F2"/><rect x="618" y="71" width="9" height="9" fill="#F2F2F2"/><rect x="627" y="71" width="9" height="9" fill="#F2F2F2"/><rect x="636" y="71" width="9" height="9" fill="#F2F2F2"/><rect x="564" y="80" width="9" height="9" fill="#F2F2F2"/><rect x="573" y="80" width="9" height="9" fill="#F2F2F2"/><rect x="582" y="80" width="9" height="9" fill="#F2F2F2"/><rect x="609" y="80" width="9" height="9" fill="#F2F2F2"/><rect x="618" y="80" width="9" height="9" fill="#F2F2F2"/><rect x="627" y="80" width="9" height="9" fill="#F2F2F2"/><rect x="573" y="89" width="9" height="9" fill="#F2F2F2"/><rect x="582" y="89" width="9" height="9" fill="#F2F2F2"/><rect x="591" y="89" width="9" height="9" fill="#F2F2F2"/><rect x="600" y="89" width="9" height="9" fill="#F2F2F2"/><rect x="609" y="89" width="9" height="9" fill="#F2F2F2"/><rect x="618" y="89" width="9" height="9" fill="#F2F2F2"/><rect x="573" y="98" width="9" height="9" fill="#F2F2F2"/><rect x="591" y="98" width="9" height="9" fill="#F2F2F2"/><rect x="600" y="98" width="9" height="9" fill="#F2F2F2"/><rect x="618" y="98" width="9" height="9" fill="#F2F2F2"/><rect x="573" y="107" width="9" height="9" fill="#F2F2F2"/><rect x="582" y="107" width="9" height="9" fill="#F2F2F2"/><rect x="591" y="107" width="9" height="9" fill="#F2F2F2"/><rect x="600" y="107" width="9" height="9" fill="#F2F2F2"/><rect x="609" y="107" width="9" height="9" fill="#F2F2F2"/><rect x="618" y="107" width="9" height="9" fill="#F2F2F2"/><rect x="564" y="53" width="18" height="9" fill="#FF2E88" filter="url(#glow)"><animate attributeName="opacity" values="1;0;1" dur="2.4s" repeatCount="indefinite" calcMode="discrete"/></rect><rect x="609" y="53" width="18" height="9" fill="#FF2E88" filter="url(#glow)"><animate attributeName="opacity" values="1;0;1" dur="2.4s" repeatCount="indefinite" calcMode="discrete"/></rect></g><text x="600" y="150" text-anchor="middle" font-family="Consolas,'SFMono-Regular','Liberation Mono','Courier New',monospace" font-size="21" fill="#F2F2F2">“Deus não joga dados com o universo.” <tspan fill="#6E7191" font-size="14">— Einstein</tspan></text><text x="600" y="184" text-anchor="middle" font-family="Consolas,'SFMono-Regular','Liberation Mono','Courier New',monospace" font-size="21" fill="#FF2E88" filter="url(#glow)">Mas alguém precisa limpar os dados dele.</text><g><text x="600" y="250" font-family="'Arial Black','Segoe UI Black',Impact,'Helvetica Neue',Arial,sans-serif" font-size="40" letter-spacing="4" text-anchor="middle" fill="#00F0FF" opacity=".85" transform="translate(-3 0)">NÓS SOMOS DEDSEC<animateTransform attributeName="transform" type="translate" values="0 0;0 0;-6 0;6 1;0 0;0 0;-12 -1;0 0" keyTimes="0;.8;.82;.84;.86;.93;.95;1" dur="5s" begin="0.3s" repeatCount="indefinite" calcMode="discrete"/></text><text x="600" y="250" font-family="'Arial Black','Segoe UI Black',Impact,'Helvetica Neue',Arial,sans-serif" font-size="40" letter-spacing="4" text-anchor="middle" fill="#FF2E88" opacity=".85" transform="translate(3 0)">NÓS SOMOS DEDSEC<animateTransform attributeName="transform" type="translate" values="0 0;0 0;6 0;-6 1;0 0;0 0;12 -1;0 0" keyTimes="0;.8;.82;.84;.86;.93;.95;1" dur="5s" begin="0.0s" repeatCount="indefinite" calcMode="discrete"/></text><text x="600" y="250" font-family="'Arial Black','Segoe UI Black',Impact,'Helvetica Neue',Arial,sans-serif" font-size="40" letter-spacing="4" text-anchor="middle" fill="#F2F2F2" filter="url(#glow)">NÓS SOMOS DEDSEC<animateTransform attributeName="transform" type="translate" values="0 0;0 0;2 0;-2 1;0 0;0 0;4 -1;0 0" keyTimes="0;.8;.82;.84;.86;.93;.95;1" dur="5s" begin="0.1s" repeatCount="indefinite" calcMode="discrete"/></text></g><text x="600" y="284" text-anchor="middle" font-family="Consolas,'SFMono-Regular','Liberation Mono','Courier New',monospace" font-size="12" fill="#6E7191">CONEXÃO ENCERRADA · LIMPE SEUS NULOS · GS4L1M<tspan fill="#00F0FF">_<animate attributeName="opacity" values="1;0;1" dur="1s" repeatCount="indefinite" calcMode="discrete"/></tspan></text><rect x="65" y="232" width="414" height="5" fill="#00F0FF" opacity="0"><animate attributeName="opacity" values="0;0;.55;0;0" keyTimes="0;0.24;0.25;0.27;1" dur="5.0s" repeatCount="indefinite"/></rect><rect x="511" y="246" width="334" height="3" fill="#FF2E88" opacity="0"><animate attributeName="opacity" values="0;0;.55;0;0" keyTimes="0;0.48;0.49;0.51;1" dur="5.7s" repeatCount="indefinite"/></rect><rect x="71" y="287" width="284" height="9" fill="#00F0FF" opacity="0"><animate attributeName="opacity" values="0;0;.55;0;0" keyTimes="0;0.21;0.22;0.24;1" dur="6.4s" repeatCount="indefinite"/></rect><rect x="628" y="62" width="316" height="4" fill="#F2F2F2" opacity="0"><animate attributeName="opacity" values="0;0;.55;0;0" keyTimes="0;0.23;0.24;0.26;1" dur="7.1s" repeatCount="indefinite"/></rect><rect x="381" y="280" width="90" height="4" fill="#F2F2F2" opacity="0"><animate attributeName="opacity" values="0;0;.55;0;0" keyTimes="0;0.41;0.42;0.44;1" dur="7.8s" repeatCount="indefinite"/></rect><rect width="1200" height="300" fill="url(#scan)"/></svg>